<mxfile host="app.diagrams.net" modified="2023-03-27T06:56:10.334Z" agent="Mozilla/5.0 (Windows NT 10.0; Win64; x64) AppleWebKit/537.36 (KHTML, like Gecko) Chrome/111.0.0.0 Safari/537.36" etag="b6a8lz4wA8RXXY3K36LQ" version="21.1.1" type="github">
  <diagram name="Page-1" id="0S65t2cG3uPDp3mLqJaC">
    <mxGraphModel dx="1114" dy="623" grid="1" gridSize="10" guides="1" tooltips="1" connect="1" arrows="1" fold="1" page="1" pageScale="1" pageWidth="827" pageHeight="1169" math="0" shadow="0">
      <root>
        <mxCell id="0" />
        <mxCell id="1" parent="0" />
        <mxCell id="6_cvgtiBTDXDW0V2c5-d-1" style="edgeStyle=orthogonalEdgeStyle;rounded=0;orthogonalLoop=1;jettySize=auto;html=1;exitX=0.5;exitY=1;exitDx=0;exitDy=0;fontSize=13;fontFamily=Times New Roman;fontStyle=0" edge="1" parent="1" source="6_cvgtiBTDXDW0V2c5-d-2">
          <mxGeometry relative="1" as="geometry">
            <mxPoint x="370" y="170" as="targetPoint" />
          </mxGeometry>
        </mxCell>
        <mxCell id="6_cvgtiBTDXDW0V2c5-d-2" value="&lt;font style=&quot;font-size: 13px;&quot;&gt;Bắt đầu&lt;/font&gt;" style="ellipse;whiteSpace=wrap;html=1;fontSize=13;fontFamily=Times New Roman;fontStyle=1" vertex="1" parent="1">
          <mxGeometry x="325.5" y="60" width="90" height="50" as="geometry" />
        </mxCell>
        <mxCell id="6_cvgtiBTDXDW0V2c5-d-3" style="rounded=0;orthogonalLoop=1;jettySize=auto;html=1;exitX=0.458;exitY=0.978;exitDx=0;exitDy=0;exitPerimeter=0;fontSize=13;fontFamily=Times New Roman;fontStyle=0" edge="1" parent="1" source="6_cvgtiBTDXDW0V2c5-d-4" target="6_cvgtiBTDXDW0V2c5-d-7">
          <mxGeometry relative="1" as="geometry" />
        </mxCell>
        <mxCell id="6_cvgtiBTDXDW0V2c5-d-4" value="&lt;font style=&quot;font-size: 13px;&quot;&gt;Nhập thông tin&lt;br&gt;phòng ban&lt;br&gt;&lt;/font&gt;" style="shape=parallelogram;perimeter=parallelogramPerimeter;whiteSpace=wrap;html=1;fixedSize=1;fontSize=13;fontFamily=Times New Roman;fontStyle=0" vertex="1" parent="1">
          <mxGeometry x="315" y="170" width="120" height="50" as="geometry" />
        </mxCell>
        <mxCell id="6_cvgtiBTDXDW0V2c5-d-5" style="rounded=0;orthogonalLoop=1;jettySize=auto;html=1;exitX=0.5;exitY=1;exitDx=0;exitDy=0;fontSize=13;fontFamily=Times New Roman;fontStyle=0" edge="1" parent="1" source="6_cvgtiBTDXDW0V2c5-d-7">
          <mxGeometry relative="1" as="geometry">
            <mxPoint x="370" y="450" as="targetPoint" />
          </mxGeometry>
        </mxCell>
        <mxCell id="6_cvgtiBTDXDW0V2c5-d-6" style="edgeStyle=elbowEdgeStyle;rounded=0;orthogonalLoop=1;jettySize=auto;html=1;exitX=1;exitY=0.5;exitDx=0;exitDy=0;entryX=1;entryY=0.5;entryDx=0;entryDy=0;" edge="1" parent="1" source="6_cvgtiBTDXDW0V2c5-d-7" target="6_cvgtiBTDXDW0V2c5-d-4">
          <mxGeometry relative="1" as="geometry">
            <mxPoint x="370" y="130" as="targetPoint" />
            <Array as="points">
              <mxPoint x="510" y="210" />
              <mxPoint x="510" y="230" />
            </Array>
          </mxGeometry>
        </mxCell>
        <mxCell id="6_cvgtiBTDXDW0V2c5-d-7" value="Kiểm tra thông&lt;br&gt;tin vừa nhập" style="rhombus;whiteSpace=wrap;html=1;fontSize=13;fontFamily=Times New Roman;fontStyle=0" vertex="1" parent="1">
          <mxGeometry x="315.5" y="290" width="110" height="100" as="geometry" />
        </mxCell>
        <mxCell id="6_cvgtiBTDXDW0V2c5-d-8" style="rounded=0;orthogonalLoop=1;jettySize=auto;html=1;entryX=0.5;entryY=0;entryDx=0;entryDy=0;" edge="1" parent="1">
          <mxGeometry relative="1" as="geometry">
            <mxPoint x="371" y="500" as="sourcePoint" />
            <mxPoint x="370.5" y="580" as="targetPoint" />
          </mxGeometry>
        </mxCell>
        <mxCell id="6_cvgtiBTDXDW0V2c5-d-9" value="Thêm dữ liệu vào CSDL" style="rounded=0;whiteSpace=wrap;html=1;fontSize=13;fontFamily=Times New Roman;fontStyle=0" vertex="1" parent="1">
          <mxGeometry x="314" y="450" width="106" height="50" as="geometry" />
        </mxCell>
        <mxCell id="6_cvgtiBTDXDW0V2c5-d-10" value="&lt;font style=&quot;font-size: 13px;&quot;&gt;&lt;span style=&quot;font-size: 13px;&quot;&gt;Kết Thúc&lt;/span&gt;&lt;/font&gt;" style="ellipse;whiteSpace=wrap;html=1;fontSize=13;fontFamily=Times New Roman;fontStyle=1" vertex="1" parent="1">
          <mxGeometry x="320" y="699.46" width="101" height="50" as="geometry" />
        </mxCell>
        <mxCell id="6_cvgtiBTDXDW0V2c5-d-11" value="&lt;b&gt;Không&amp;nbsp;&lt;br&gt;&lt;/b&gt;" style="text;html=1;align=center;verticalAlign=middle;resizable=0;points=[];autosize=1;strokeColor=none;fillColor=none;fontSize=13;fontFamily=Times New Roman;fontStyle=0" vertex="1" parent="1">
          <mxGeometry x="435.5" y="315" width="60" height="30" as="geometry" />
        </mxCell>
        <mxCell id="6_cvgtiBTDXDW0V2c5-d-12" value="&lt;b&gt;Có&lt;/b&gt;" style="text;html=1;align=center;verticalAlign=middle;resizable=0;points=[];autosize=1;strokeColor=none;fillColor=none;" vertex="1" parent="1">
          <mxGeometry x="360" y="385" width="40" height="30" as="geometry" />
        </mxCell>
        <mxCell id="6_cvgtiBTDXDW0V2c5-d-13" style="rounded=0;orthogonalLoop=1;jettySize=auto;html=1;exitX=0.5;exitY=1;exitDx=0;exitDy=0;" edge="1" parent="1" source="6_cvgtiBTDXDW0V2c5-d-14" target="6_cvgtiBTDXDW0V2c5-d-10">
          <mxGeometry relative="1" as="geometry" />
        </mxCell>
        <mxCell id="6_cvgtiBTDXDW0V2c5-d-14" value="Hiển thị thông tin phòng ban vừa thêm" style="rounded=0;whiteSpace=wrap;html=1;fontSize=13;fontFamily=Times New Roman;fontStyle=0" vertex="1" parent="1">
          <mxGeometry x="309.5" y="580" width="122" height="80" as="geometry" />
        </mxCell>
      </root>
    </mxGraphModel>
  </diagram>
</mxfile>
